<svg class="color-icon" xmlns="http://www.w3.org/2000/svg" viewBox="0 0 32 32"><g data-name="72 - Edit"><path  d="M12,21.5a1.5,1.5,0,0,1-1.49-1.69l.56-4.36a1.52,1.52,0,0,1,.42-.87L22.35,3.73a4.19,4.19,0,1,1,5.92,5.92L17.42,20.51a1.52,1.52,0,0,1-.87.42l-4.36.56Zm4.36-2.05h0ZM14,16.34l-.25,1.93L15.66,18,26.15,7.53a1.18,1.18,0,0,0,0-1.68,1.21,1.21,0,0,0-1.68,0Z"/><path  d="M24.89 12.41A1.51 1.51 0 0 1 23.83 12L20 8.17a1.5 1.5 0 1 1 2.12-2.12L26 9.85a1.5 1.5 0 0 1-1.06 2.56zM26 29.5H4A1.5 1.5 0 0 1 2.5 28V6A1.5 1.5 0 0 1 4 4.5H15a1.5 1.5 0 0 1 0 3H5.5v19h19V17a1.5 1.5 0 0 1 3 0V28A1.5 1.5 0 0 1 26 29.5z"/></g><style>

svg:hover {
    fill: #4674b8;
}
</style></svg>
