<svg xmlns="http://www.w3.org/2000/svg" enable-background="new 0 0 35 35" style="    fill:  #ced4da;" viewBox="0 0 35 35"><path d="M17.5,33.5c8.8,0,16-7.2,16-16c0-8.8-7.2-16-16-16c-8.8,0-16,7.2-16,16C1.5,26.3,8.7,33.5,17.5,33.5z M17.5,5.5
		c6.6,0,12,5.4,12,12c0,6.6-5.4,12-12,12s-12-5.4-12-12C5.5,10.9,10.9,5.5,17.5,5.5z"/><path d="M17.5 19.5c.5 0 1 .1 1.5.3l1.5-12.3h-6L16 19.8C16.5 19.6 17 19.5 17.5 19.5zM17.5 27.5c1.7 0 3-1.3 3-3 0-1.7-1.4-3-3-3-1.6 0-3 1.3-3 3C14.5 26.2 15.8 27.5 17.5 27.5z"/></svg>