<svg id="Capa_1" enable-background="new 0 0 512 512" height="512" viewBox="0 0 512 512" width="512" xmlns="http://www.w3.org/2000/svg"><g><g><path d="m429.221 504.481h-346.443c-6.073 0-10.997-4.923-10.997-10.997v-474.968c0-6.073 4.923-10.997 10.997-10.997h346.443c6.073 0 10.997 4.923 10.997 10.997v474.967c0 6.074-4.923 10.998-10.997 10.998z" fill="#f8f6f6"/></g><g><path d="m440.218 18.516v474.967c0 6.076-4.922 10.998-10.998 10.998h-24.061c6.076 0 10.998-4.923 10.998-10.998v-474.967c0-6.076-4.922-10.998-10.998-10.998h24.061c6.076 0 10.998 4.923 10.998 10.998z" fill="#ebebeb"/></g><g><path d="m429.222 512h-346.444c-10.21 0-18.516-8.306-18.516-18.516v-139.735c0-4.153 3.366-7.519 7.519-7.519s7.519 3.366 7.519 7.519v139.735c0 1.918 1.56 3.478 3.478 3.478h346.443c1.917 0 3.478-1.56 3.478-3.478v-474.968c0-1.918-1.56-3.478-3.478-3.478h-346.443c-1.917 0-3.478 1.56-3.478 3.478v300.08c0 4.153-3.366 7.519-7.519 7.519s-7.519-3.366-7.519-7.519v-300.08c.001-10.21 8.307-18.516 18.516-18.516h346.443c10.21 0 18.516 8.306 18.516 18.516v474.967c0 10.211-8.306 18.517-18.515 18.517z"/></g><g><g><path d="m385.811 234.896h-259.622c-1.692 0-3.063-1.372-3.063-3.063v-54.99c0-1.692 1.372-3.063 3.063-3.063h259.622c1.692 0 3.063 1.372 3.063 3.063v54.99c.001 1.691-1.371 3.063-3.063 3.063z" fill="#9ec54c"/></g><g><path d="m200.997 467.46h-74.808c-1.692 0-3.063-1.372-3.063-3.063v-191.852c0-1.692 1.372-3.063 3.063-3.063h74.808c1.692 0 3.063 1.372 3.063 3.063v191.852c.001 1.692-1.371 3.063-3.063 3.063z" fill="#9ec54c"/></g><g><path d="m388.878 176.839v54.99c0 1.694-1.374 3.068-3.068 3.068h-20.051c1.694 0 3.068-1.373 3.068-3.068v-54.99c0-1.684-1.374-3.058-3.068-3.058h20.051c1.694 0 3.068 1.373 3.068 3.058z" fill="#9ec54c"/></g><g><path d="m204.058 272.542v191.858c0 1.684-1.373 3.058-3.058 3.058h-20.051c1.684 0 3.058-1.373 3.058-3.058v-191.858c0-1.684-1.373-3.058-3.058-3.058h20.051c1.685 0 3.058 1.374 3.058 3.058z" fill="#9ec54c"/></g><g><path d="m120.449 108.828c.881.336 1.785.494 2.675.494 3.03 0 5.886-1.845 7.028-4.845l3.511-9.217h24.167l3.47 9.196c1.466 3.884 5.803 5.847 9.69 4.38 3.885-1.467 5.846-5.805 4.38-9.69l-21.307-56.458c-.026-.069-.053-.138-.081-.206-1.365-3.319-4.565-5.463-8.154-5.463-.003 0-.006 0-.009 0-3.593.004-6.792 2.155-8.152 5.48-.023.056-.045.113-.067.169l-21.502 56.456c-1.477 3.883.47 8.227 4.351 9.704zm25.353-45.439 6.353 16.834h-12.765z"/><path d="m204.061 107.285c3.111 0 6.078-.628 8.783-1.76 1.296 2.265 3.73 3.795 6.526 3.795 4.153 0 7.519-3.366 7.519-7.519v-34.69c0-4.153-3.366-7.519-7.519-7.519-2.796 0-5.231 1.53-6.526 3.795-2.705-1.132-5.672-1.76-8.783-1.76-12.588 0-22.829 10.241-22.829 22.829s10.241 22.829 22.829 22.829zm0-30.618c4.296 0 7.79 3.495 7.79 7.79 0 4.296-3.495 7.79-7.79 7.79-4.296 0-7.79-3.495-7.79-7.79 0-4.296 3.494-7.79 7.79-7.79z"/><path d="m252.476 109.321h136.399c4.153 0 7.519-3.366 7.519-7.519s-3.366-7.519-7.519-7.519h-136.399c-4.153 0-7.519 3.366-7.519 7.519 0 4.152 3.366 7.519 7.519 7.519z"/><path d="m388.874 129.633h-265.748c-4.153 0-7.519 3.366-7.519 7.519s3.366 7.519 7.519 7.519h265.749c4.153 0 7.519-3.366 7.519-7.519s-3.367-7.519-7.52-7.519z"/><path d="m385.811 166.26h-43.592c-4.153 0-7.519 3.366-7.519 7.519s3.366 7.519 7.519 7.519h39.136v46.079h-250.71v-46.079h176.736c4.153 0 7.519-3.366 7.519-7.519s-3.366-7.519-7.519-7.519h-181.192c-5.835 0-10.583 4.747-10.583 10.583v54.99c0 5.835 4.747 10.583 10.583 10.583h259.622c5.835 0 10.583-4.747 10.583-10.583v-54.99c0-5.836-4.748-10.583-10.583-10.583z"/><path d="m200.997 261.963h-74.808c-5.835 0-10.583 4.747-10.583 10.583v191.852c0 5.835 4.747 10.583 10.583 10.583h74.808c5.835 0 10.583-4.747 10.583-10.583v-191.853c0-5.835-4.747-10.582-10.583-10.582zm-4.455 197.978h-65.897v-182.94h65.897z"/><path d="m388.874 261.963h-91.953c-4.153 0-7.519 3.366-7.519 7.519s3.366 7.519 7.519 7.519h91.953c4.153 0 7.519-3.366 7.519-7.519s-3.366-7.519-7.519-7.519z"/><path d="m388.874 294.959h-146.924c-4.153 0-7.519 3.366-7.519 7.519s3.366 7.519 7.519 7.519h146.925c4.153 0 7.519-3.366 7.519-7.519s-3.367-7.519-7.52-7.519z"/><path d="m388.874 327.955h-146.924c-4.153 0-7.519 3.366-7.519 7.519s3.366 7.519 7.519 7.519h146.925c4.153 0 7.519-3.366 7.519-7.519s-3.367-7.519-7.52-7.519z"/><path d="m388.874 360.952h-146.924c-4.153 0-7.519 3.366-7.519 7.519s3.366 7.519 7.519 7.519h146.925c4.153 0 7.519-3.366 7.519-7.519s-3.367-7.519-7.52-7.519z"/><path d="m388.874 393.948h-146.924c-4.153 0-7.519 3.366-7.519 7.519s3.366 7.519 7.519 7.519h146.925c4.153 0 7.519-3.366 7.519-7.519s-3.367-7.519-7.52-7.519z"/><path d="m388.874 426.945h-146.924c-4.153 0-7.519 3.366-7.519 7.519s3.366 7.519 7.519 7.519h146.925c4.153 0 7.519-3.366 7.519-7.519s-3.367-7.519-7.52-7.519z"/><path d="m348.386 459.941h-106.436c-4.153 0-7.519 3.366-7.519 7.519s3.366 7.519 7.519 7.519h106.437c4.153 0 7.519-3.366 7.519-7.519s-3.367-7.519-7.52-7.519z"/></g></g></g></svg>